<svg xmlns="http://www.w3.org/2000/svg" xmlns:svg="http://www.w3.org/2000/svg" xmlns:xlink="http://www.w3.org/1999/xlink" id="svg2" width="744.094" height="1052.362" version="1.1"><defs id="defs4"><linearGradient id="linearGradient3825"><stop id="stop3827" offset="0" stop-color="#ff0" stop-opacity="1"/><stop id="stop3829" offset="1" stop-color="#ffc900" stop-opacity="1"/></linearGradient><linearGradient id="linearGradient3790"><stop id="stop3792" offset="0" stop-color="red" stop-opacity="1"/><stop id="stop3794" offset="1" stop-color="#d80000" stop-opacity="1"/></linearGradient><radialGradient id="radialGradient3800" cx="325.666" cy="364.372" r="129.071" fx="325.666" fy="364.372" gradientTransform="matrix(0.94547567,-1.6638477e-7,2.182889e-7,1.2783604,17.756634,-101.42667)" gradientUnits="userSpaceOnUse" xlink:href="#linearGradient3790"/><radialGradient id="radialGradient3831" cx="460.179" cy="282.362" r="69.821" fx="460.179" fy="282.362" gradientTransform="matrix(1,0,0,0.86825175,0,37.200723)" gradientUnits="userSpaceOnUse" xlink:href="#linearGradient3825"/><radialGradient id="radialGradient3800-5" cx="325.666" cy="364.372" r="129.071" fx="325.666" fy="364.372" gradientTransform="matrix(0.94547567,-1.6638477e-7,2.182889e-7,1.2783604,17.756634,-101.42667)" gradientUnits="userSpaceOnUse" xlink:href="#linearGradient3790-3"/><linearGradient id="linearGradient3790-3"><stop id="stop3792-9" offset="0" stop-color="red" stop-opacity="1"/><stop id="stop3794-6" offset="1" stop-color="#d80000" stop-opacity="1"/></linearGradient><filter id="filter3879"><feGaussianBlur id="feGaussianBlur3881" stdDeviation="3.857"/></filter><radialGradient id="radialGradient3831-5" cx="460.18" cy="282.362" r="69.821" fx="460.18" fy="282.362" gradientTransform="matrix(1,0,0,0.86825175,0,37.200723)" gradientUnits="userSpaceOnUse" xlink:href="#linearGradient3825-2"/><linearGradient id="linearGradient3825-2"><stop id="stop3827-5" offset="0" stop-color="#ff0" stop-opacity="1"/><stop id="stop3829-4" offset="1" stop-color="#ffc900" stop-opacity="1"/></linearGradient><filter id="filter3921"><feGaussianBlur id="feGaussianBlur3923" stdDeviation="1.304"/></filter></defs><metadata id="metadata7"/><g id="layer1"><path id="path2985" fill="url(#radialGradient3800)" fill-opacity="1" fill-rule="evenodd" stroke="#fff" stroke-dasharray="none" stroke-linecap="butt" stroke-linejoin="round" stroke-miterlimit="4" stroke-opacity="1" stroke-width="15.254" d="m 448.57143,355.21933 a 128.57143,128.57143 0 1 1 -257.14286,0 128.57143,128.57143 0 1 1 257.14286,0 z" transform="matrix(0.65555556,0,0,0.65555556,76.507934,93.496176)"/><path id="path3009" fill="#fff" fill-opacity="1" stroke="none" d="m 243.15625,273.65625 c -2.88919,4.43341 -10.55993,6.79787 -9.5,13 3.85836,5.23951 9.78864,8.95068 14.01285,14.07535 8.88113,8.88113 17.76227,17.76227 26.6434,26.6434 -14.27596,14.24483 -28.51167,28.53028 -42.8125,42.75 5.8219,1.9538 7.47918,11.69237 14.46875,10.40625 C 260.12963,367.72053 273.23349,353.4261 287,340.0625 c 14.27941,14.30389 28.61211,28.55485 42.84375,42.90625 1.86838,-5.93192 11.96576,-7.78082 10.125,-14.90625 -12.89551,-13.9735 -26.96393,-27.04049 -40.28125,-40.6875 14.29352,-14.26894 28.53394,-28.59136 42.875,-42.8125 -5.85131,-1.96987 -7.74998,-11.82521 -14.78125,-10.28125 -8.42246,7.09657 -15.7776,15.96342 -23.94066,23.54824 C 298.22706,303.43841 292.61353,309.04733 287,314.65625 272.85435,300.52065 258.70725,286.3865 244.5625,272.25 l -0.70711,0.70711 -0.69914,0.69914 z"/><path id="path3823" fill="url(#radialGradient3831)" fill-opacity="1" stroke="#fff" stroke-dasharray="none" stroke-linejoin="round" stroke-miterlimit="4" stroke-opacity="1" stroke-width="10" d="m 530,342.36218 -139.64101,0.62178 69.28203,-121.24355 z" transform="translate(20.358984,48.621775)"/><text id="text3833" x="460" y="376.362" fill="#000" fill-opacity="1" stroke="none" font-family="Linux Libertine O" font-size="90" font-stretch="normal" font-style="normal" font-variant="normal" font-weight="normal" letter-spacing="0" word-spacing="0" xml:space="preserve" style="line-height:125%;-inkscape-font-specification:New Century Schoolbook"><tspan style="-inkscape-font-specification:Terminal Bold" id="tspan3835" x="460" y="376.362" font-family="Sans" font-stretch="normal" font-style="normal" font-variant="normal" font-weight="bold">!</tspan></text></g></svg>